<svg xmlns="http://www.w3.org/2000/svg" xmlns:xlink="http://www.w3.org/1999/xlink" width="40px"
              height="40px">
              <path fill-rule="evenodd" fill="rgb(170, 170, 170)"
                d="M22.000,10.000 L18.000,10.000 L18.000,18.000 L10.000,18.000 L10.000,22.000 L18.000,22.000 L18.000,30.000 L22.000,30.000 L22.000,22.000 L30.000,22.000 L30.000,18.000 L22.000,18.000 L22.000,10.000 ZM20.000,-0.000 C8.960,-0.000 -0.000,8.960 -0.000,20.000 C-0.000,31.040 8.960,40.000 20.000,40.000 C31.040,40.000 40.000,31.040 40.000,20.000 C40.000,8.960 31.040,-0.000 20.000,-0.000 ZM20.000,36.000 C11.180,36.000 4.000,28.820 4.000,20.000 C4.000,11.180 11.180,4.000 20.000,4.000 C28.820,4.000 36.000,11.180 36.000,20.000 C36.000,28.820 28.820,36.000 20.000,36.000 Z" />
            </svg> 